<?xml version="1.0" encoding="utf-8"?>
<!-- Generator: Adobe Illustrator 25.0.1, SVG Export Plug-In . SVG Version: 6.00 Build 0)  -->
<svg version="1.1" id="Layer_1" xmlns="http://www.w3.org/2000/svg" xmlns:xlink="http://www.w3.org/1999/xlink" x="0px" y="0px"
	 viewBox="0 0 56 56" style="enable-background:new 0 0 56 56;" xml:space="preserve">
<style type="text/css">
	.st0{fill:#FFFFFF;}
	.st1{fill:none;stroke:#000000;stroke-width:2;stroke-miterlimit:10;}
</style>
<g>
	<circle class="st0" cx="28" cy="28" r="27"/>
	<path d="M28,2c14.3,0,26,11.7,26,26S42.3,54,28,54S2,42.3,2,28S13.7,2,28,2 M28,0C12.5,0,0,12.5,0,28s12.5,28,28,28s28-12.5,28-28
		S43.5,0,28,0L28,0z"/>
</g>
<g>
	<polygon class="st1" points="22,42 34,42 34,38 38,38 38,34 42,34 42,14 14,14 14,34 18,34 18,38 22,38 	"/>
	<line class="st1" x1="18" y1="18" x2="18" y2="30"/>
	<line class="st1" x1="22" y1="18" x2="22" y2="30"/>
	<line class="st1" x1="26" y1="18" x2="26" y2="30"/>
	<line class="st1" x1="30" y1="18" x2="30" y2="30"/>
	<line class="st1" x1="34" y1="18" x2="34" y2="30"/>
	<line class="st1" x1="38" y1="18" x2="38" y2="30"/>
</g>
</svg>
